<svg xmlns="http://www.w3.org/2000/svg" xmlns:xlink="http://www.w3.org/1999/xlink" viewBox="2461 -45 44 44">
  <defs>
    <style>
      .cls-1 {
        fill: #00356b;
      }

      .cls-2, .cls-3 {
        fill: #ddd;
      }

      .cls-3 {
        font-size: 12px;
        font-family: HelveticaNeue, Helvetica Neue;
      }

      .cls-4 {
        filter: url(#ellipse-5);
      }
    </style>
    <filter id="ellipse-5" x="2461" y="-45" width="44" height="44" filterUnits="userSpaceOnUse">
      <feOffset dy="2" input="SourceAlpha"/>
      <feGaussianBlur stdDeviation="2" result="blur"/>
      <feFlood flood-opacity="0.161"/>
      <feComposite operator="in" in2="blur"/>
      <feComposite in="SourceGraphic"/>
    </filter>
  </defs>
  <g id="group-194" transform="translate(1350 -65)">
    <g class="cls-4" transform="matrix(1, 0, 0, 1, -1350, 65)">
      <circle id="ellipse-5-2" data-name="ellipse-5" class="cls-1" cx="16" cy="16" r="16" transform="translate(2467 -41)"/>
    </g>
    <g id="group-193">
      <path id="path-12" class="cls-2" d="M256.8,122H251.93a6.446,6.446,0,0,0-4.23,1.294,4.252,4.252,0,0,0-1.519,3.161,3.735,3.735,0,0,0,3.926,3.712h.754a2.092,2.092,0,0,0-.236.922,2.486,2.486,0,0,0,.709,1.609,10.124,10.124,0,0,0-4.5,1.125,3.375,3.375,0,0,0-1.834,2.8c0,1.744,1.654,3.375,5.085,3.375,4.061,0,6.221-2.25,6.221-4.5,0-1.631-.945-2.43-1.991-3.307l-.855-.664a1.294,1.294,0,0,1-.607-1.012,1.654,1.654,0,0,1,.664-1.125,3.847,3.847,0,0,0,.3-6.547h1.462Zm-2.081,14.455c0,1.462-1.2,2.554-3.476,2.554-2.531,0-4.162-1.2-4.162-2.88a2.655,2.655,0,0,1,2.036-2.43,9.426,9.426,0,0,1,2.486-.382,3.946,3.946,0,0,1,.54,0c1.8,1.327,2.576,1.969,2.576,3.172Zm-1.845-7.571a2.43,2.43,0,0,1-1.609.664c-2.036,0-2.959-2.621-2.959-4.207a2.722,2.722,0,0,1,.517-1.744,2.25,2.25,0,0,1,1.654-.776c1.957,0,2.981,2.644,2.981,4.342a2.385,2.385,0,0,1-.585,1.721Z" transform="translate(880.345 -90.992)"/>
      <text id="_" data-name="+" class="cls-3" transform="translate(1137 42)"><tspan x="0" y="0">+</tspan></text>
    </g>
  </g>
</svg>
