<svg xmlns="http://www.w3.org/2000/svg" width="188.288" height="20.003" viewBox="0 0 188.288 20.003">
  <defs>
    <style>
      .cls-1 {
        fill: #fff;
      }
    </style>
  </defs>
  <g id="Group_19" data-name="Group 19" transform="translate(-157 -20)">
    <g id="group-145" transform="translate(157.1 20)">
      <path id="path" class="cls-1" d="M6.242,11.513v5.763c0,.711.664,1.067,1.327,1.067a27.224,27.224,0,0,0,5.236-.356c1.844-.427,3.835-2.348,5.088-3.984.295-.427.516-.64.811-.64a.4.4,0,0,1,.369.427c0,.569-1.327,3.771-1.327,5.052,0,.711-.295,1.067-.959,1.067-.737,0-4.13-.285-12.758-.285-.885,0-2.8.285-3.466.285-.369,0-.664-.071-.664-.427,0-.285.074-.356.737-.5a1.921,1.921,0,0,0,1.549-2.134V3.4A1.965,1.965,0,0,0,.637,1.267c-.59-.142-.664-.213-.664-.5,0-.356.295-.427.664-.427S3.219.413,5.873.413C14.5.413,15.608.2,16.345.2c.664,0,.959.356.959,1.067,0,1.281.369,4.127.369,4.554a.439.439,0,0,1-.442.5c-.369,0-.442-.356-.737-.711A8.391,8.391,0,0,0,9.266,1.481c-2.36,0-3.024.5-3.024,1.281V8.24c0,.711.221.854.885.854,1.622,0,4.13.213,5.752-.711,1.18-.64,1.475-1.636,1.844-1.636a.418.418,0,0,1,.442.427,12.328,12.328,0,0,0-.295,2.277,25.681,25.681,0,0,0,.369,2.917c0,.356-.221.569-.442.569-.442,0-.811-1.21-1.7-1.708a3.969,3.969,0,0,0-2.581-.569C6.906,10.659,6.242,10.73,6.242,11.513ZM4.4,17.916V2.263c0-.783-.074-.925-1.032-.925-.442,0-.885.071-.885.213,0,.213.737.5.737,1.21V17.276c0,.854-.516.925-.516,1.21,0,.213.295.213,1.032.213C4.325,18.628,4.4,18.485,4.4,17.916Zm8.923-8.751c-.295.213-.59.427-.59.569s.369.356.737.569a1.633,1.633,0,0,0,.516.427.232.232,0,0,0,.221-.213c0-.142-.074-.925-.074-1.494,0-.213-.074-.285-.147-.285C13.838,8.809,13.543,9.023,13.322,9.165ZM15.386,2.9c.59.64.959,1.067,1.106,1.21q.111.213.221.213c.074,0,.074,0,.074-.142a13.481,13.481,0,0,0-.664-2.206c-.221-.64-.959-.711-2.212-.711-.295,0-.369.071-.369.142C13.469,1.623,14.428,1.908,15.386,2.9Zm0,14.8c-.59.356-1.032.64-1.032.854s.811.213,1.7.213c.516,0,1.032-1.21,1.4-2.277.074-.285.074-.356-.074-.427S16.493,16.92,15.386,17.7Z" transform="translate(0 -0.053)"/>
      <path id="path-2" data-name="path" class="cls-1" d="M50.715,3.715a2.346,2.346,0,0,0-1.844-2.49c-.664-.142-.737-.285-.737-.5Q48.134.3,48.8.3c.811,0,2.212.213,2.95.213S53.812.3,54.623.3c.369,0,.664.142.664.427,0,.213-.074.356-.737.5-1.327.285-1.7,1.352-1.844,2.49-.221,2.206-.147,13.3-.147,14.657,0,.569,0,1.636-.959,1.636a1.887,1.887,0,0,1-1.475-.854C49.461,18.443,36.851,4.64,36.851,4.64s0,9.463.221,11.669a2.346,2.346,0,0,0,1.844,2.49c.664.142.737.285.737.5q0,.427-.664.427c-.811,0-2.212-.213-2.95-.213s-2.065.213-2.876.213c-.369,0-.664-.142-.664-.427,0-.213.074-.356.737-.5,1.327-.285,1.7-1.352,1.844-2.49.221-2.206.074-12.238.074-13.234a1.632,1.632,0,0,0-1.475-1.85c-.59-.071-.737-.213-.737-.5S33.164.3,33.606.3c.664,0,1.844.285,2.434.285,1.106,0,1.7-.142,2.286-.142s.811.142,1.327,1C40.833,3.217,51.01,14.388,51.01,14.388S50.936,5.992,50.715,3.715ZM36.63,17.945c-.369-.569-.442-.854-.59-.854s-.221.285-.59.854c-.221.285-.442.5-.442.64,0,.071.074.142.221.142h1.549c.221,0,.295-.071.295-.142C37.072,18.443,36.777,18.23,36.63,17.945ZM36.113,2.221,50.567,18.159c.369.427.664.711.885.711.295,0,.221-.711.221-.854a1.145,1.145,0,0,0-.221-.427S38.1,2.719,37.588,2.221C37,1.581,36.556,1.3,36.04,1.3s-.664,0-.664.142S35.745,1.865,36.113,2.221Zm14.97-.213c.369.569.442.854.59.854s.221-.285.59-.854c.221-.285.516-.5.516-.64,0-.071-.074-.142-.221-.142H51.01c-.221,0-.3.071-.3.142A1.952,1.952,0,0,0,51.084,2.008Z" transform="translate(-8.559 -0.079)"/>
      <path id="path-3" data-name="path" class="cls-1" d="M74.108,3.7c0,4.129,11.578,3.986,11.578,9.824C85.686,17.583,82,20,78.164,20a21,21,0,0,1-5.383-.854c-1.254-.285-2.434-.854-2.434-1.851,0-.569.074-1.708.074-2.42,0-1-.074-1.851-.074-2.136,0-.356.295-.427.516-.427.369,0,.516.427.664.925,1.032,2.847,3.687,5.339,6.711,5.339,2.655,0,3.835-1.78,3.835-3.132,0-5.125-11.873-4.414-11.873-9.966C70.2,1.21,74.846,0,77.427,0a27.225,27.225,0,0,1,4.2.427c.664,0,1.327-.071,1.7-.071s.59.285.59,1c0,1.281.369,3.631.369,4.058,0,.356-.295.427-.516.427-.369,0-.59-.5-.811-.925a5.611,5.611,0,0,0-5.678-3.417C75.362,1.495,74.108,2.278,74.108,3.7Zm-2.95,12.458c0,.712,0,1,.442,1.353a6.845,6.845,0,0,0,2.434.925c.148,0,.221-.071.221-.142,0-.214-1.106-.783-1.7-1.495a7.042,7.042,0,0,1-.959-1.78c-.147-.356-.147-.427-.295-.427C71.085,14.664,71.085,15.092,71.158,16.159Zm0-11.176c0,4.841,12.02,4.627,12.02,9.895a2.933,2.933,0,0,1-.664,2.064c0,.071.074.142.221.142a3.185,3.185,0,0,0,1.327-2.705c0-5.339-11.947-5.766-11.947-9.753a5.015,5.015,0,0,1,.959-2.492.156.156,0,0,0-.147-.142A3.891,3.891,0,0,0,71.158,4.983Zm12.094-2.42c-.074-.712,0-1.495-.59-1.495C81.778,1,81.335.925,80.893.925c-.147,0-.221,0-.221.142,0,.214.885.569,1.549,1.21A3.82,3.82,0,0,1,83.1,3.559c.074.214.074.285.221.285C83.4,3.844,83.4,3.631,83.252,2.563Z" transform="translate(-20.411 0)"/>
      <path id="path-4" data-name="path" class="cls-1" d="M104.442,11.54V17.3c0,.711.664,1.067,1.327,1.067a27.227,27.227,0,0,0,5.236-.356c1.844-.427,3.835-2.348,5.088-3.984.295-.427.516-.64.811-.64a.4.4,0,0,1,.369.427c0,.569-1.327,3.77-1.327,5.051,0,.711-.295,1.067-.959,1.067-.737,0-4.13-.285-12.758-.285-.885,0-2.8.285-3.466.285-.369,0-.664-.071-.664-.427,0-.285.074-.356.737-.5a1.921,1.921,0,0,0,1.549-2.134V3.43A1.965,1.965,0,0,0,98.837,1.3c-.664-.142-.737-.213-.737-.5,0-.356.295-.427.664-.427s2.581.142,5.236.142c8.628,0,9.734-.213,10.472-.213.664,0,.959.356.959,1.067,0,1.281.369,4.126.369,4.553a.439.439,0,0,1-.443.5c-.369,0-.442-.356-.737-.711a8.391,8.391,0,0,0-7.227-4.126c-2.36,0-3.024.5-3.024,1.281V8.339c0,.711.221.854.885.854,1.622,0,4.13.213,5.752-.711,1.18-.64,1.475-1.636,1.844-1.636a.418.418,0,0,1,.442.427,12.321,12.321,0,0,0-.3,2.276,25.675,25.675,0,0,0,.369,2.917c0,.356-.221.569-.442.569-.442,0-.811-1.209-1.7-1.707a3.969,3.969,0,0,0-2.581-.569C105.106,10.686,104.442,10.758,104.442,11.54Zm-1.844,6.4V2.292c0-.854-.147-1-1.106-1-.442,0-.885.071-.885.213,0,.213.737.5.737,1.209V17.231c0,.854-.516.925-.516,1.209,0,.213.295.213,1.032.213C102.451,18.654,102.6,18.512,102.6,17.943Zm8.849-8.75c-.295.213-.59.427-.59.569s.369.356.738.569a2.077,2.077,0,0,0,.59.356.232.232,0,0,0,.221-.213c0-.142-.074-.925-.074-1.494,0-.213-.074-.285-.147-.285A3.181,3.181,0,0,1,111.448,9.193Zm2.065-6.26c.59.64.959,1.067,1.106,1.209q.111.213.221.213c.074,0,.074,0,.074-.142a13.478,13.478,0,0,0-.664-2.205c-.221-.64-.959-.711-2.212-.711-.295,0-.369.071-.369.142C111.669,1.652,112.628,1.936,113.513,2.932Zm0,14.8c-.59.356-1.032.64-1.032.854s.811.213,1.7.213c.516,0,1.032-1.209,1.4-2.276.074-.285.074-.356-.074-.427S114.693,16.947,113.513,17.729Z" transform="translate(-28.569 -0.079)"/>
      <path id="path-5" data-name="path" class="cls-1" d="M150.726,2.476c.516-1.209.664-2.063,1.254-2.063.664,0,1.106.142,2.286.142.59,0,1.77-.285,2.434-.285.369,0,.664.213.664.427,0,.285-.147.427-.737.5-1.106.213-1.106.782-1.106,1.849s1.032,12.448,1.18,13.586c.148,1,.443,1.921,1.549,2.134.59.071.737.213.737.5s-.221.427-.664.427c-.664,0-2.655-.285-3.54-.285s-2.876.285-3.466.285c-.369,0-.664-.213-.664-.427,0-.285.148-.427.738-.5,1.106-.213,1.327-1.067,1.327-2.134,0-.569-1.106-12.519-1.106-12.519s-5.678,12.875-6.342,14.511a1.589,1.589,0,0,1-1.77,1.138,1.644,1.644,0,0,1-1.844-1.138c-.369-.711-6.637-13.8-6.637-13.8s-1.18,10.314-1.032,12.732a1.406,1.406,0,0,0,1.254,1.351.417.417,0,0,1,.442.427c0,.213-.148.356-.516.356-.516,0-1.4-.071-1.991-.071-.737,0-1.4.071-2.212.071-.369,0-.664-.142-.664-.427,0-.213.074-.356.737-.5,1.106-.213,1.327-.854,1.549-2.063.369-2.063,1.18-12.661,1.18-13.728a1.6,1.6,0,0,0-1.475-1.849c-.59-.071-.737-.213-.737-.5s.221-.427.664-.427c.664,0,1.844.285,2.434.285,1.106,0,1.991-.142,2.655-.142.59,0,.59.142.885,1,.664,1.992,6.563,14.653,6.563,14.653S149.4,5.819,150.726,2.476Zm-15.413.569c.147.213,7.006,14.8,7.227,15.364s.442.5.811.5.516-.213.516-.356a2.146,2.146,0,0,0-.148-.5S136.494,2.832,136.2,2.192a1.475,1.475,0,0,0-1.4-.854c-.516,0-.59,0-.59.142C134.208,1.694,134.871,2.192,135.314,3.045Zm18.362-.356c0-.64.442-1,.442-1.209,0-.142-.147-.213-.664-.213-.959,0-1.106.142-1.106,1s1.4,15.08,1.4,15.08c0,.854-.516.925-.516,1.209,0,.213.295.213,1.032.213.664,0,.738-.071.738-.711C155.077,18.054,153.676,3.33,153.676,2.69Z" transform="translate(-38.147 -0.053)"/>
      <path id="path-6" data-name="path" class="cls-1" d="M175.9,19.389c0-.284.074-.356.738-.5a1.921,1.921,0,0,0,1.549-2.134V3.458a1.964,1.964,0,0,0-1.549-2.134c-.664-.142-.738-.213-.738-.5,0-.356.295-.427.664-.427s2.581.142,5.236.142S185.56.4,187.4.4c3.761,0,6.416,1.565,6.416,4.2,0,3.058-3.1,4.481-3.1,4.481s5.088.213,5.088,4.694c0,4.125-3.245,6.116-8.85,6.116-3.1,0-6.194-.284-7.006-.284-.885,0-2.8.284-3.466.284C176.195,19.816,175.9,19.745,175.9,19.389Zm4.425-1.422V2.32c0-.853-.148-1-1.106-1q-.664,0-.664.213c0,.213.442.5.442,1.209V17.256c0,.853-.516.925-.516,1.209,0,.213.295.213,1.032.213S180.324,18.536,180.324,17.967Zm1.844-9.815c0,.711.221.853.885.853a16.811,16.811,0,0,0,4.277-.356,3.3,3.3,0,0,0,2.507-3.556c0-2.276-1.622-3.485-4.646-3.485-2.36,0-3.023.5-3.023,1.28Zm0,9.175c0,.711.295,1.067,1.032,1.067h3.908c3.245,0,4.572-2.2,4.572-4.2,0-2.7-1.7-3.983-5.162-3.983-3.687,0-4.351.284-4.351,1ZM188.952,1.68A4.215,4.215,0,0,1,190.8,5.094a4.375,4.375,0,0,1-1.475,3.343c0,.071.074.071.148.071a3.817,3.817,0,0,0,2.581-3.627,3.474,3.474,0,0,0-2.876-3.272C189.026,1.538,188.952,1.609,188.952,1.68Zm1.328,8.25c0,.213,2.655,1.28,2.655,4.267,0,2.418-2.286,3.912-2.286,4.125,0,.071.074.071.148.071a4.664,4.664,0,0,0,3.392-4.409c0-2.987-3.171-4.2-3.687-4.2C190.354,9.788,190.28,9.859,190.28,9.93Z" transform="translate(-51.223 -0.105)"/>
      <path id="path-7" data-name="path" class="cls-1" d="M220.184,18.04c1.844-.427,3.835-2.347,5.088-3.983.295-.427.516-.64.811-.64a.4.4,0,0,1,.369.427c0,.569-1.328,3.77-1.328,5.05,0,.711-.3,1.067-.959,1.067-.737,0-2.728-.285-11.43-.285-.885,0-2.581.285-3.171.285-.369,0-.664-.071-.664-.427,0-.285.074-.356.737-.5a1.921,1.921,0,0,0,1.549-2.134V3.459a1.964,1.964,0,0,0-1.549-2.134c-.59-.071-.737-.213-.737-.5s.221-.427.664-.427c.664,0,2.655.285,3.54.285S215.98.4,216.57.4c.369,0,.664.213.664.427,0,.285-.148.427-.737.5-1.106.213-1.475,1.067-1.475,2.134v13.87c0,.711.664,1.067,1.327,1.067A16.168,16.168,0,0,0,220.184,18.04Zm-6.785-.071V2.321c0-.854-.148-1-1.106-1q-.664,0-.664.213c0,.213.443.5.443,1.209V17.258c0,.854-.516.925-.516,1.209,0,.213.295.213,1.032.213C213.252,18.681,213.4,18.538,213.4,17.969Zm9.292-.213c-.59.356-1.032.64-1.032.854s.811.213,1.7.213c.516,0,1.032-1.209,1.4-2.276.074-.285.074-.356-.074-.427S223.871,16.973,222.691,17.756Z" transform="translate(-61.641 -0.105)"/>
      <path id="path-8" data-name="path" class="cls-1" d="M244.742,11.54V17.3c0,.711.664,1.067,1.328,1.067a27.226,27.226,0,0,0,5.236-.356c1.843-.427,3.835-2.348,5.088-3.984.295-.427.516-.64.811-.64a.4.4,0,0,1,.369.427c0,.569-1.327,3.77-1.327,5.051,0,.711-.295,1.067-.959,1.067-.737,0-4.129-.285-12.757-.285-.885,0-2.8.285-3.466.285-.369,0-.664-.071-.664-.427,0-.285.074-.356.738-.5a1.921,1.921,0,0,0,1.549-2.134V3.43A1.965,1.965,0,0,0,239.137,1.3c-.664-.142-.738-.213-.738-.5,0-.356.295-.427.664-.427s2.581.142,5.236.142c8.628,0,9.734-.213,10.472-.213.664,0,.959.356.959,1.067,0,1.281.369,4.126.369,4.553a.439.439,0,0,1-.443.5c-.369,0-.442-.356-.738-.711a8.391,8.391,0,0,0-7.227-4.126c-2.36,0-3.024.5-3.024,1.281V8.339c0,.711.221.854.885.854,1.623,0,4.13.213,5.752-.711,1.18-.64,1.475-1.636,1.843-1.636a.418.418,0,0,1,.442.427,12.324,12.324,0,0,0-.295,2.276,25.67,25.67,0,0,0,.369,2.917c0,.356-.221.569-.442.569-.443,0-.811-1.209-1.7-1.707a3.97,3.97,0,0,0-2.581-.569C245.405,10.686,244.742,10.758,244.742,11.54Zm-1.843,6.4V2.292c0-.854-.148-1-1.106-1-.442,0-.885.071-.885.213,0,.213.737.5.737,1.209V17.231c0,.854-.516.925-.516,1.209,0,.213.295.213,1.032.213C242.751,18.654,242.9,18.512,242.9,17.943Zm8.849-8.75c-.295.213-.59.427-.59.569s.368.356.737.569a2.077,2.077,0,0,0,.59.356.232.232,0,0,0,.221-.213c0-.142-.074-.925-.074-1.494,0-.213-.074-.285-.147-.285A3.177,3.177,0,0,1,251.748,9.193Zm2.065-6.26c.59.64.959,1.067,1.106,1.209q.111.213.221.213c.074,0,.074,0,.074-.142a13.468,13.468,0,0,0-.664-2.205c-.221-.64-.959-.711-2.212-.711-.3,0-.369.071-.369.142C251.969,1.652,252.854,1.936,253.812,2.932Zm0,14.8c-.59.356-1.033.64-1.033.854s.811.213,1.7.213c.516,0,1.033-1.209,1.4-2.276.074-.285.074-.356-.074-.427S254.992,16.947,253.812,17.729Z" transform="translate(-69.385 -0.079)"/>
    </g>
  </g>
</svg>

