<svg xmlns="http://www.w3.org/2000/svg" viewBox="2859 -668 263.664 28.011">
  <defs>
    <style>
      .cls-1 {
        fill: #fff;
      }
    </style>
  </defs>
  <g id="group-145" transform="translate(2859.1 -668)">
    <path id="path" class="cls-1" d="M8.473,16.05v8.074a1.608,1.608,0,0,0,1.794,1.5,35.526,35.526,0,0,0,7.078-.5c2.492-.6,5.184-3.29,6.878-5.582.4-.6.7-.9,1.1-.9a.558.558,0,0,1,.5.6c0,.8-1.794,5.283-1.794,7.078,0,1-.4,1.5-1.3,1.5-1,0-5.582-.4-17.245-.4-1.2,0-3.788.4-4.685.4-.5,0-.9-.1-.9-.6,0-.4.1-.5,1-.7,1.5-.3,2.093-1.5,2.093-2.991V4.686A2.744,2.744,0,0,0,.9,1.7C.1,1.5,0,1.4,0,1,0,.5.4.4.9.4S4.386.5,7.974.5C19.637.5,21.133.2,22.13.2c.9,0,1.3.5,1.3,1.5,0,1.794.5,5.782.5,6.38,0,.5-.3.7-.6.7-.5,0-.6-.5-1-1-1.794-2.691-4.585-5.782-9.769-5.782-3.19,0-4.087.7-4.087,1.794v7.676c0,1,.3,1.2,1.2,1.2,2.193,0,5.582.3,7.775-1,1.595-.9,1.994-2.293,2.492-2.293a.575.575,0,0,1,.6.6,17.863,17.863,0,0,0-.4,3.19,37.226,37.226,0,0,0,.5,4.087c0,.5-.3.8-.6.8-.6,0-1.1-1.695-2.293-2.392a5.214,5.214,0,0,0-3.489-.8C9.37,14.854,8.473,14.953,8.473,16.05ZM5.981,25.021V3.091c0-1.1-.1-1.3-1.4-1.3-.6,0-1.2.1-1.2.3,0,.3,1,.7,1,1.695V24.124c0,1.2-.7,1.3-.7,1.695,0,.3.4.3,1.4.3C5.881,26.018,5.981,25.819,5.981,25.021ZM18.042,12.76c-.4.3-.8.6-.8.8s.5.5,1,.8a2.221,2.221,0,0,0,.7.6.318.318,0,0,0,.3-.3c0-.2-.1-1.3-.1-2.093,0-.3-.1-.4-.2-.4C18.74,12.262,18.342,12.561,18.042,12.76Zm2.791-8.772c.8.9,1.3,1.5,1.5,1.695q.15.3.3.3c.1,0,.1,0,.1-.2a19.41,19.41,0,0,0-.9-3.09c-.3-.9-1.3-1-2.991-1-.4,0-.5.1-.5.2C18.242,2.194,19.538,2.592,20.834,3.988Zm0,20.734c-.8.5-1.4.9-1.4,1.2s1.1.3,2.293.3c.7,0,1.4-1.695,1.894-3.19.1-.4.1-.5-.1-.6S22.329,23.626,20.834,24.722Z" transform="translate(0 -0.001)"/>
    <path id="path-2" data-name="path" class="cls-1" d="M57.122,5.085c-.1-1.695-.7-3.09-2.492-3.489-.9-.2-1-.4-1-.7q0-.6.9-.6c1.1,0,2.991.3,3.987.3S61.309.3,62.405.3c.5,0,.9.2.9.6,0,.3-.1.5-1,.7-1.794.4-2.293,1.894-2.492,3.489-.3,3.09-.2,18.641-.2,20.535,0,.8,0,2.293-1.3,2.293a2.534,2.534,0,0,1-1.994-1.2c-.9-1-17.943-20.336-17.943-20.336s0,13.258.3,16.348c.1,1.695.7,3.09,2.492,3.489.9.2,1,.4,1,.7q0,.6-.9.6c-1.1,0-2.991-.3-3.987-.3s-2.791.3-3.888.3c-.5,0-.9-.2-.9-.6,0-.3.1-.5,1-.7,1.794-.4,2.293-1.894,2.492-3.489.3-3.09.1-17.146.1-18.541A2.27,2.27,0,0,0,34.095,1.6c-.8-.1-1-.3-1-.7s.3-.6.9-.6c.9,0,2.492.4,3.29.4,1.5,0,2.293-.2,3.09-.2s1.1.2,1.794,1.4c1.595,2.492,15.351,18.142,15.351,18.142S57.421,8.275,57.122,5.085ZM38.082,25.022c-.5-.8-.6-1.2-.8-1.2s-.3.4-.8,1.2c-.3.4-.6.7-.6.9,0,.1.1.2.3.2h2.093c.3,0,.4-.1.4-.2C38.68,25.719,38.282,25.42,38.082,25.022Zm-.7-22.03L56.923,25.321c.5.6.9,1,1.2,1,.4,0,.3-1,.3-1.2a1.623,1.623,0,0,0-.3-.6S40.076,3.689,39.378,2.991c-.8-.9-1.4-1.3-2.093-1.3s-.9,0-.9.2S36.886,2.493,37.384,2.991Zm20.236-.3c.5.8.6,1.2.8,1.2s.3-.4.8-1.2c.3-.4.7-.7.7-.9,0-.1-.1-.2-.3-.2H57.521c-.3,0-.4.1-.4.2A2.764,2.764,0,0,0,57.62,2.692Z" transform="translate(-0.103 -0.001)"/>
    <path id="path-3" data-name="path" class="cls-1" d="M75.483,5.184c0,5.782,15.65,5.582,15.65,13.756,0,5.682-4.984,9.071-10.168,9.071a27.491,27.491,0,0,1-7.277-1.2c-1.695-.4-3.29-1.2-3.29-2.592,0-.8.1-2.392.1-3.389,0-1.4-.1-2.592-.1-2.991,0-.5.4-.6.7-.6.5,0,.7.6.9,1.3,1.4,3.987,4.984,7.476,9.071,7.476,3.589,0,5.184-2.492,5.184-4.386,0-7.177-16.049-6.18-16.049-13.956C70.2,1.695,76.48,0,79.969,0a35.575,35.575,0,0,1,5.682.6c.9,0,1.794-.1,2.293-.1s.8.4.8,1.4c0,1.794.5,5.084.5,5.682,0,.5-.4.6-.7.6-.5,0-.8-.7-1.1-1.3-1.595-3.09-3.489-4.785-7.676-4.785C77.177,2.093,75.483,3.19,75.483,5.184ZM71.5,22.628c0,1,0,1.4.6,1.894a9.059,9.059,0,0,0,3.29,1.3c.2,0,.3-.1.3-.2,0-.3-1.5-1.1-2.293-2.093a9.986,9.986,0,0,1-1.3-2.492c-.2-.5-.2-.6-.4-.6C71.4,20.535,71.4,21.133,71.5,22.628Zm0-15.65c0,6.779,16.248,6.479,16.248,13.856a4.19,4.19,0,0,1-.9,2.891c0,.1.1.2.3.2.4,0,1.794-1.695,1.794-3.788,0-7.476-16.149-8.074-16.149-13.657,0-1.994,1.3-3.19,1.3-3.489a.214.214,0,0,0-.2-.2A5.465,5.465,0,0,0,71.5,6.978ZM87.844,3.589c-.1-1,0-2.093-.8-2.093-1.2-.1-1.794-.2-2.392-.2-.2,0-.3,0-.3.2,0,.3,1.2.8,2.093,1.695a5.366,5.366,0,0,1,1.2,1.794c.1.3.1.4.3.4C88.043,5.383,88.043,5.084,87.844,3.589Z" transform="translate(-0.222)"/>
    <path id="path-4" data-name="path" class="cls-1" d="M106.673,16.05v8.074a1.608,1.608,0,0,0,1.794,1.5,35.525,35.525,0,0,0,7.078-.5c2.492-.6,5.184-3.29,6.878-5.582.4-.6.7-.9,1.1-.9a.558.558,0,0,1,.5.6c0,.8-1.794,5.283-1.794,7.078,0,1-.4,1.5-1.3,1.5-1,0-5.582-.4-17.245-.4-1.2,0-3.788.4-4.685.4-.5,0-.9-.1-.9-.6,0-.4.1-.5,1-.7,1.5-.3,2.093-1.5,2.093-2.991V4.686A2.744,2.744,0,0,0,99.1,1.7c-.9-.2-1-.3-1-.7,0-.5.4-.6.9-.6s3.489.2,7.078.2C117.738.6,119.233.3,120.23.3c.9,0,1.3.5,1.3,1.5,0,1.794.5,5.782.5,6.38,0,.5-.3.7-.6.7-.5,0-.6-.5-1-1-1.794-2.691-4.586-5.782-9.769-5.782-3.19,0-4.087.7-4.087,1.794v7.676c0,1,.3,1.2,1.2,1.2,2.193,0,5.582.3,7.775-1,1.595-.9,1.994-2.293,2.492-2.293a.575.575,0,0,1,.6.6,17.859,17.859,0,0,0-.4,3.19,37.228,37.228,0,0,0,.5,4.087c0,.5-.3.8-.6.8-.6,0-1.1-1.695-2.293-2.392a5.214,5.214,0,0,0-3.489-.8C107.57,14.854,106.673,14.954,106.673,16.05Zm-2.492,8.972V3.091c0-1.2-.2-1.4-1.5-1.4-.6,0-1.2.1-1.2.3,0,.3,1,.7,1,1.695V24.025c0,1.2-.7,1.3-.7,1.695,0,.3.4.3,1.4.3C103.981,26.018,104.181,25.819,104.181,25.022ZM116.143,12.76c-.4.3-.8.6-.8.8s.5.5,1,.8a2.785,2.785,0,0,0,.8.5.318.318,0,0,0,.3-.3c0-.2-.1-1.3-.1-2.093,0-.3-.1-.4-.2-.4A4.3,4.3,0,0,1,116.143,12.76Zm2.791-8.772c.8.9,1.3,1.5,1.5,1.695q.15.3.3.3c.1,0,.1,0,.1-.2a19.411,19.411,0,0,0-.9-3.09c-.3-.9-1.3-1-2.991-1-.4,0-.5.1-.5.2C116.442,2.194,117.738,2.593,118.934,3.988Zm0,20.734c-.8.5-1.4.9-1.4,1.2s1.1.3,2.293.3c.7,0,1.4-1.695,1.894-3.19.1-.4.1-.5-.1-.6S120.529,23.626,118.934,24.723Z" transform="translate(-0.31 -0.001)"/>
    <path id="path-5" data-name="path" class="cls-1" d="M157.912,3.39c.7-1.695.9-2.891,1.695-2.891.9,0,1.5.2,3.09.2.8,0,2.393-.4,3.29-.4.5,0,.9.3.9.6,0,.4-.2.6-1,.7-1.5.3-1.5,1.1-1.5,2.592s1.4,17.445,1.595,19.04c.2,1.4.6,2.691,2.093,2.991.8.1,1,.3,1,.7s-.3.6-.9.6c-.9,0-3.589-.4-4.785-.4s-3.888.4-4.685.4c-.5,0-.9-.3-.9-.6,0-.4.2-.6,1-.7,1.5-.3,1.794-1.5,1.794-2.991,0-.8-1.5-17.544-1.5-17.544s-7.676,18.043-8.573,20.336a2.151,2.151,0,0,1-2.393,1.595,2.223,2.223,0,0,1-2.492-1.595c-.5-1-8.972-19.339-8.972-19.339s-1.6,14.454-1.4,17.843a1.941,1.941,0,0,0,1.695,1.894.575.575,0,0,1,.6.6c0,.3-.2.5-.7.5-.7,0-1.894-.1-2.692-.1-1,0-1.894.1-2.99.1-.5,0-.9-.2-.9-.6,0-.3.1-.5,1-.7,1.5-.3,1.794-1.2,2.094-2.891.5-2.891,1.595-17.744,1.595-19.239s-.5-2.293-1.994-2.592c-.8-.1-1-.3-1-.7s.3-.6.9-.6c.9,0,2.492.4,3.29.4,1.5,0,2.692-.2,3.589-.2.8,0,.8.2,1.2,1.4.9,2.791,8.872,20.535,8.872,20.535S156.117,8.075,157.912,3.39Zm-20.834.8c.2.3,9.47,20.734,9.769,21.532s.6.7,1.1.7.7-.3.7-.5a3.089,3.089,0,0,0-.2-.7s-9.769-21.332-10.168-22.23a1.985,1.985,0,0,0-1.894-1.2c-.7,0-.8,0-.8.2C135.582,2.293,136.48,2.991,137.078,4.187Zm24.821-.5c0-.9.6-1.4.6-1.695,0-.2-.2-.3-.9-.3-1.3,0-1.5.2-1.5,1.4S162,24.224,162,24.224c0,1.2-.7,1.3-.7,1.695,0,.3.4.3,1.4.3.9,0,1-.1,1-1C163.793,25.221,161.9,4.586,161.9,3.689Z" transform="translate(-0.411 -0.001)"/>
    <path id="path-6" data-name="path" class="cls-1" d="M175.9,27.016c0-.4.1-.5,1-.7,1.5-.3,2.093-1.5,2.093-2.991V4.686A2.744,2.744,0,0,0,176.9,1.7c-.9-.2-1-.3-1-.7,0-.5.4-.6.9-.6s3.489.2,7.078.2,5.084-.2,7.576-.2c5.084,0,8.673,2.193,8.673,5.881,0,4.286-4.187,6.28-4.187,6.28s6.878.3,6.878,6.579c0,5.782-4.386,8.573-11.962,8.573-4.187,0-8.373-.4-9.47-.4-1.2,0-3.788.4-4.685.4C176.3,27.614,175.9,27.514,175.9,27.016Zm5.981-1.994V3.091c0-1.2-.2-1.4-1.5-1.4q-.9,0-.9.3c0,.3.6.7.6,1.695V24.025c0,1.2-.7,1.3-.7,1.695,0,.3.4.3,1.4.3S181.881,25.819,181.881,25.022Zm2.492-13.756c0,1,.3,1.2,1.2,1.2a21.939,21.939,0,0,0,5.782-.5c2.392-.6,3.389-2.592,3.389-4.984,0-3.19-2.193-4.885-6.28-4.885-3.19,0-4.087.7-4.087,1.794Zm0,12.859c0,1,.4,1.5,1.4,1.5h5.283c4.386,0,6.181-3.09,6.181-5.881,0-3.788-2.293-5.582-6.978-5.582-4.984,0-5.881.4-5.881,1.4Zm9.171-21.93c0,.3,2.493,1.3,2.493,4.785,0,3.389-1.994,4.386-1.994,4.685,0,.1.1.1.2.1.7,0,3.489-1.794,3.489-5.084a4.792,4.792,0,0,0-3.888-4.585C193.643,1.995,193.543,2.095,193.543,2.194Zm1.795,11.563c0,.3,3.589,1.794,3.589,5.981,0,3.389-3.09,5.483-3.09,5.782,0,.1.1.1.2.1a6.471,6.471,0,0,0,4.585-6.18c0-4.187-4.286-5.881-4.984-5.881C195.438,13.558,195.338,13.658,195.338,13.758Z" transform="translate(-0.556 -0.001)"/>
    <path id="path-7" data-name="path" class="cls-1" d="M224.152,25.122c2.492-.6,5.183-3.29,6.878-5.582.4-.6.7-.9,1.1-.9a.558.558,0,0,1,.5.6c0,.8-1.794,5.283-1.794,7.078,0,1-.4,1.5-1.3,1.5-1,0-3.688-.4-15.451-.4-1.2,0-3.489.4-4.286.4-.5,0-.9-.1-.9-.6,0-.4.1-.5,1-.7,1.5-.3,2.093-1.5,2.093-2.991V4.686A2.743,2.743,0,0,0,209.9,1.7c-.8-.1-1-.3-1-.7s.3-.6.9-.6c.9,0,3.589.4,4.785.4s3.888-.4,4.685-.4c.5,0,.9.3.9.6,0,.4-.2.6-1,.7-1.5.3-1.994,1.5-1.994,2.991V24.125a1.608,1.608,0,0,0,1.794,1.5A21.1,21.1,0,0,0,224.152,25.122Zm-9.171-.1V3.091c0-1.2-.2-1.4-1.5-1.4q-.9,0-.9.3c0,.3.6.7.6,1.695V24.025c0,1.2-.7,1.3-.7,1.695,0,.3.4.3,1.4.3C214.782,26.019,214.981,25.819,214.981,25.022Zm12.56-.3c-.8.5-1.4.9-1.4,1.2s1.1.3,2.293.3c.7,0,1.4-1.695,1.894-3.19.1-.4.1-.5-.1-.6S229.136,23.626,227.542,24.723Z" transform="translate(-0.661 -0.001)"/>
    <path id="path-8" data-name="path" class="cls-1" d="M246.972,16.05v8.074a1.608,1.608,0,0,0,1.795,1.5,35.524,35.524,0,0,0,7.078-.5c2.492-.6,5.184-3.29,6.878-5.582.4-.6.7-.9,1.1-.9a.558.558,0,0,1,.5.6c0,.8-1.794,5.283-1.794,7.078,0,1-.4,1.5-1.3,1.5-1,0-5.582-.4-17.245-.4-1.2,0-3.788.4-4.686.4-.5,0-.9-.1-.9-.6,0-.4.1-.5,1-.7,1.5-.3,2.093-1.5,2.093-2.991V4.686A2.744,2.744,0,0,0,239.4,1.7c-.9-.2-1-.3-1-.7,0-.5.4-.6.9-.6s3.489.2,7.078.2C258.038.6,259.533.3,260.53.3c.9,0,1.3.5,1.3,1.5,0,1.794.5,5.782.5,6.38,0,.5-.3.7-.6.7-.5,0-.6-.5-1-1-1.794-2.691-4.585-5.782-9.769-5.782-3.19,0-4.087.7-4.087,1.794v7.676c0,1,.3,1.2,1.2,1.2,2.193,0,5.583.3,7.776-1,1.595-.9,1.993-2.293,2.492-2.293a.575.575,0,0,1,.6.6,17.863,17.863,0,0,0-.4,3.19,37.22,37.22,0,0,0,.5,4.087c0,.5-.3.8-.6.8-.6,0-1.1-1.695-2.293-2.392a5.214,5.214,0,0,0-3.489-.8C247.87,14.854,246.972,14.954,246.972,16.05Zm-2.492,8.972V3.091c0-1.2-.2-1.4-1.5-1.4-.6,0-1.2.1-1.2.3,0,.3,1,.7,1,1.695V24.025c0,1.2-.7,1.3-.7,1.695,0,.3.4.3,1.4.3C244.281,26.018,244.481,25.819,244.481,25.022ZM256.443,12.76c-.4.3-.8.6-.8.8s.5.5,1,.8a2.785,2.785,0,0,0,.8.5.318.318,0,0,0,.3-.3c0-.2-.1-1.3-.1-2.093,0-.3-.1-.4-.2-.4A4.291,4.291,0,0,1,256.443,12.76Zm2.791-8.772c.8.9,1.3,1.5,1.495,1.695q.15.3.3.3c.1,0,.1,0,.1-.2a19.4,19.4,0,0,0-.9-3.09c-.3-.9-1.3-1-2.99-1-.4,0-.5.1-.5.2C256.742,2.194,257.938,2.593,259.234,3.988Zm0,20.734c-.8.5-1.4.9-1.4,1.2s1.1.3,2.292.3c.7,0,1.4-1.695,1.894-3.19.1-.4.1-.5-.1-.6S260.829,23.626,259.234,24.723Z" transform="translate(-0.753 -0.001)"/>
  </g>
</svg>
