<svg xmlns="http://www.w3.org/2000/svg" viewBox="6655 -1338 15.257 13.575">
  <defs>
    <style>
      .cls-1 {
        fill: #fd953a;
      }
    </style>
  </defs>
  <path id="Path_49" data-name="Path 49" class="cls-1" d="M15.1,12.6,8.1.3c-.3-.5-.7-.5-1,0L.1,12.6a.552.552,0,0,0,.5.9h14C15.2,13.5,15.4,13.1,15.1,12.6ZM8.6,11a.472.472,0,0,1-.5.5h-1a.472.472,0,0,1-.5-.5V10a.472.472,0,0,1,.5-.5h1a.472.472,0,0,1,.5.5Zm0-3a.472.472,0,0,1-.5.5h-1A.472.472,0,0,1,6.6,8V5a.472.472,0,0,1,.5-.5h1a.472.472,0,0,1,.5.5Z" transform="translate(6655.02 -1337.925)"/>
</svg>
